<svg xmlns="http://www.w3.org/2000/svg" viewBox="0 0 19 16" width="1em" height="1em" focusable="false">
    <path d="M17.844 7.5 16.03 5.875V1.75a.76.76 0 0 0-.75-.75h-3a.74.74 0 0 0-.75.75v.094L9.844.344A1.135 1.135 0 0 0 9.03 0c-.344 0-.625.125-.844.344l-8 7.156C.095 7.594 0 7.75 0 7.875c0 .156.063.25.156.344l.313.375a.518.518 0 0 0 .375.156.47.47 0 0 0 .344-.125L2 7.875v6.875c0 .719.563 1.25 1.25 1.25h11.531c.688 0 1.25-.531 1.25-1.25V7.875l.813.75a.47.47 0 0 0 .343.125.517.517 0 0 0 .375-.156l.344-.375a.568.568 0 0 0 .125-.344c0-.125-.093-.281-.187-.375Zm-3.313 7h-11V6.531l5.5-4.937 5.5 4.937V14.5Zm0-9.969-1.5-1.343V2.5h1.5v2.031ZM7.031 6.5v3c0 .281.219.5.5.5h3c.25 0 .5-.219.5-.5v-3c0-.25-.25-.5-.5-.5h-3c-.281 0-.5.25-.5.5Z"/>
</svg>
